<svg width="24" height="24" viewBox="0 0 24 24" fill="none" xmlns="http://www.w3.org/2000/svg">
<path d="M3.87765 11.3475C3.7014 11.5163 3.60015 11.7525 3.60015 12C3.60015 12.2475 3.7014 12.48 3.87765 12.6525L10.4776 18.9525C10.8376 19.2975 11.4076 19.2825 11.7489 18.9225C12.0901 18.5625 12.0789 17.9925 11.7189 17.6513L6.7464 12.9L19.5001 12.9C19.9989 12.9 20.4001 12.4988 20.4001 12C20.4001 11.5013 19.9989 11.1 19.5001 11.1L6.7464 11.1L11.7226 6.3525C12.0826 6.0075 12.0939 5.44126 11.7526 5.08125C11.4114 4.72125 10.8414 4.71001 10.4814 5.05125L3.8814 11.3513L3.87765 11.3475Z" fill="#0A2925"/>
</svg>
