<svg width="20" height="20" viewBox="0 0 20 20" fill="none" xmlns="http://www.w3.org/2000/svg">
<path d="M16.769 10.5437C16.9159 10.4031 17.0002 10.2062 17.0002 9.99996C17.0002 9.79371 16.9159 9.59996 16.769 9.45621L11.269 4.20621C10.969 3.91871 10.494 3.93121 10.2096 4.23121C9.92524 4.53121 9.93462 5.00621 10.2346 5.29058L14.3784 9.24996H3.75024C3.33462 9.24996 3.00024 9.58433 3.00024 9.99996C3.00024 10.4156 3.33462 10.75 3.75024 10.75H14.3784L10.2315 14.7062C9.93149 14.9937 9.92212 15.4656 10.2065 15.7656C10.4909 16.0656 10.9659 16.075 11.2659 15.7906L16.7659 10.5406L16.769 10.5437Z" fill="#F2FBF8"/>
</svg>
