<svg width="24" height="24" viewBox="0 0 24 24" fill="none" xmlns="http://www.w3.org/2000/svg">
<path d="M9.29961 3.2999C9.29961 2.80115 8.89836 2.3999 8.39961 2.3999C7.90086 2.3999 7.49961 2.80115 7.49961 3.2999V4.7999H5.99961C4.67586 4.7999 3.59961 5.87615 3.59961 7.1999V7.7999V9.5999V19.1999C3.59961 20.5237 4.67586 21.5999 5.99961 21.5999H17.9996C19.3234 21.5999 20.3996 20.5237 20.3996 19.1999V9.5999V7.7999V7.1999C20.3996 5.87615 19.3234 4.7999 17.9996 4.7999H16.4996V3.2999C16.4996 2.80115 16.0984 2.3999 15.5996 2.3999C15.1009 2.3999 14.6996 2.80115 14.6996 3.2999V4.7999H9.29961V3.2999ZM5.39961 9.5999H18.5996V19.1999C18.5996 19.5299 18.3296 19.7999 17.9996 19.7999H5.99961C5.66961 19.7999 5.39961 19.5299 5.39961 19.1999V9.5999Z" fill="#7427A7"/>
</svg>
