<svg width="26" height="26" viewBox="0 0 26 26" fill="none" xmlns="http://www.w3.org/2000/svg">
<path d="M10.4 20.8C10.4 19.475 9.325 18.4 8 18.4H3.2C2.76 18.4 2.4 18.04 2.4 17.6V3.2C2.4 2.76 2.76 2.4 3.2 2.4H22.4C22.84 2.4 23.2 2.76 23.2 3.2V17.6C23.2 18.04 22.84 18.4 22.4 18.4H15.465C14.945 18.4 14.44 18.57 14.025 18.88L10.4 21.6V20.8ZM10.39 24.61L10.4 24.6L15.465 20.8H22.4C24.165 20.8 25.6 19.365 25.6 17.6V3.2C25.6 1.435 24.165 0 22.4 0H3.2C1.435 0 0 1.435 0 3.2V17.6C0 19.365 1.435 20.8 3.2 20.8H5.6H8V23.2V23.4V23.415V23.735V24.8C8 25.105 8.17 25.38 8.44 25.515C8.71 25.65 9.035 25.62 9.28 25.44L10.135 24.8L10.39 24.61ZM9.2 9.2C8.535 9.2 8 9.735 8 10.4C8 11.065 8.535 11.6 9.2 11.6H16.4C17.065 11.6 17.6 11.065 17.6 10.4C17.6 9.735 17.065 9.2 16.4 9.2H9.2Z" fill="#BDBDBD"/>
</svg>
