<svg width="24" height="24" viewBox="0 0 24 24" fill="none" xmlns="http://www.w3.org/2000/svg">
<path d="M17.6476 8.04738C18.1164 7.57863 18.1164 6.81738 17.6476 6.34863C17.1789 5.87988 16.4176 5.87988 15.9489 6.34863L12.0001 10.3011L8.04763 6.35238C7.57888 5.88363 6.81763 5.88363 6.34888 6.35238C5.88013 6.82113 5.88013 7.58238 6.34888 8.05113L10.3014 11.9999L6.35263 15.9524C5.88388 16.4211 5.88388 17.1824 6.35263 17.6511C6.82138 18.1199 7.58263 18.1199 8.05138 17.6511L12.0001 13.6986L15.9526 17.6474C16.4214 18.1161 17.1826 18.1161 17.6514 17.6474C18.1201 17.1786 18.1201 16.4174 17.6514 15.9486L13.6989 11.9999L17.6476 8.04738Z" fill="#F23030"/>
</svg>
