<svg width="24" height="24" viewBox="0 0 24 24" fill="none" xmlns="http://www.w3.org/2000/svg">
<path d="M19.7999 11.9999C19.7999 9.93121 18.9781 7.94725 17.5153 6.48447C16.0526 5.02169 14.0686 4.1999 11.9999 4.1999C9.93121 4.1999 7.94725 5.02169 6.48447 6.48447C5.02169 7.94725 4.1999 9.93121 4.1999 11.9999C4.1999 14.0686 5.02169 16.0526 6.48447 17.5153C7.94725 18.9781 9.93121 19.7999 11.9999 19.7999C14.0686 19.7999 16.0526 18.9781 17.5153 17.5153C18.9781 16.0526 19.7999 14.0686 19.7999 11.9999ZM2.3999 11.9999C2.3999 9.45382 3.41133 7.01203 5.21168 5.21168C7.01203 3.41133 9.45382 2.3999 11.9999 2.3999C14.546 2.3999 16.9878 3.41133 18.7881 5.21168C20.5885 7.01203 21.5999 9.45382 21.5999 11.9999C21.5999 14.546 20.5885 16.9878 18.7881 18.7881C16.9878 20.5885 14.546 21.5999 11.9999 21.5999C9.45382 21.5999 7.01203 20.5885 5.21168 18.7881C3.41133 16.9878 2.3999 14.546 2.3999 11.9999ZM12.7799 7.4099V7.9424C13.1437 7.9874 13.5074 8.08865 13.8674 8.1899C13.9387 8.20865 14.0062 8.2274 14.0774 8.2499C14.5087 8.3699 14.7637 8.81615 14.6437 9.2474C14.5237 9.67865 14.0774 9.9299 13.6462 9.81365C13.5862 9.79865 13.5299 9.7799 13.4699 9.7649C13.2074 9.6899 12.9449 9.61865 12.6787 9.56615C12.1837 9.4724 11.6099 9.5174 11.1487 9.71615C10.7362 9.89615 10.3949 10.3312 10.8637 10.6312C11.2312 10.8674 11.6812 10.9874 12.1087 11.1037C12.1987 11.1262 12.2849 11.1524 12.3712 11.1749C12.9562 11.3399 13.7024 11.5537 14.2612 11.9362C14.9887 12.4349 15.3299 13.2449 15.1687 14.1149C15.0149 14.9549 14.4299 15.5062 13.7287 15.7912C13.4362 15.9112 13.1174 15.9862 12.7837 16.0237V16.5937C12.7837 17.0399 12.4199 17.4037 11.9737 17.4037C11.5274 17.4037 11.1637 17.0399 11.1637 16.5937V15.9412C10.6199 15.8174 10.0874 15.6449 9.55865 15.4724C9.1349 15.3337 8.9024 14.8724 9.0449 14.4487C9.1874 14.0249 9.6449 13.7924 10.0687 13.9349C10.1624 13.9649 10.2562 13.9987 10.3499 14.0287C10.7737 14.1712 11.2087 14.3174 11.6437 14.3887C12.2812 14.4824 12.7912 14.4262 13.1249 14.2912C13.5749 14.1112 13.7887 13.5749 13.3462 13.2749C12.9674 13.0162 12.4987 12.8887 12.0524 12.7687C11.9662 12.7462 11.8837 12.7237 11.7974 12.6974C11.2312 12.5362 10.5224 12.3374 9.9899 11.9962C9.25865 11.5274 8.8874 10.7474 9.0449 9.88115C9.1949 9.06365 9.8324 8.5199 10.5074 8.2274C10.7137 8.1374 10.9349 8.06615 11.1637 8.01365V7.4099C11.1637 6.96365 11.5274 6.5999 11.9737 6.5999C12.4199 6.5999 12.7837 6.96365 12.7837 7.4099H12.7799Z" fill="#7427A7"/>
</svg>
