<svg width="24" height="24" viewBox="0 0 24 24" fill="none" xmlns="http://www.w3.org/2000/svg">
<path d="M7.20005 19.7999C6.87005 19.7999 6.60005 19.5299 6.60005 19.1999V4.7999C6.60005 4.4699 6.87005 4.1999 7.20005 4.1999H13.2V7.1999C13.2 7.86365 13.7363 8.3999 14.4 8.3999H17.4V19.1999C17.4 19.5299 17.13 19.7999 16.8 19.7999H7.20005ZM7.20005 2.3999C5.8763 2.3999 4.80005 3.47615 4.80005 4.7999V19.1999C4.80005 20.5237 5.8763 21.5999 7.20005 21.5999H16.8C18.1238 21.5999 19.2 20.5237 19.2 19.1999V8.19365C19.2 7.55615 18.9488 6.9449 18.4988 6.4949L15.1013 3.10115C14.6513 2.65115 14.0438 2.3999 13.4063 2.3999H7.20005ZM9.30005 11.9999C8.8013 11.9999 8.40005 12.4012 8.40005 12.8999C8.40005 13.3987 8.8013 13.7999 9.30005 13.7999H14.7C15.1988 13.7999 15.6 13.3987 15.6 12.8999C15.6 12.4012 15.1988 11.9999 14.7 11.9999H9.30005ZM9.30005 15.5999C8.8013 15.5999 8.40005 16.0012 8.40005 16.4999C8.40005 16.9987 8.8013 17.3999 9.30005 17.3999H14.7C15.1988 17.3999 15.6 16.9987 15.6 16.4999C15.6 16.0012 15.1988 15.5999 14.7 15.5999H9.30005Z" fill="#7427A7"/>
</svg>
