<svg width="42" height="42" viewBox="0 0 42 42" fill="none" xmlns="http://www.w3.org/2000/svg">
<path d="M0 8C0 3.58172 3.58172 0 8 0H34C38.4183 0 42 3.58172 42 8V34C42 38.4183 38.4183 42 34 42H8C3.58172 42 0 38.4183 0 34V8Z" fill="#FFC9C9"/>
<path d="M30.3374 21.6376C30.6899 21.2851 30.6899 20.7151 30.3374 20.3663L25.5374 15.5626C25.1849 15.2101 24.6149 15.2101 24.2662 15.5626C23.9174 15.9151 23.9137 16.4851 24.2662 16.8338L27.5287 20.0963L18.2999 20.1001C17.8012 20.1001 17.3999 20.5013 17.3999 21.0001C17.3999 21.4988 17.8012 21.9001 18.2999 21.9001H27.5287L24.2662 25.1626C23.9137 25.5151 23.9137 26.0851 24.2662 26.4338C24.6187 26.7826 25.1887 26.7863 25.5374 26.4338L30.3374 21.6376ZM17.6999 14.4001C18.1987 14.4001 18.5999 13.9988 18.5999 13.5001C18.5999 13.0013 18.1987 12.6001 17.6999 12.6001H14.6999C12.8774 12.6001 11.3999 14.0776 11.3999 15.9001V26.1001C11.3999 27.9226 12.8774 29.4001 14.6999 29.4001H17.6999C18.1987 29.4001 18.5999 28.9988 18.5999 28.5001C18.5999 28.0013 18.1987 27.6001 17.6999 27.6001H14.6999C13.8712 27.6001 13.1999 26.9288 13.1999 26.1001V15.9001C13.1999 15.0713 13.8712 14.4001 14.6999 14.4001H17.6999Z" fill="#F23030"/>
</svg>
