<svg width="20" height="20" viewBox="0 0 20 20" fill="none" xmlns="http://www.w3.org/2000/svg">
<path d="M18 10C18 5.58125 14.4187 2 10 2C5.58125 2 2 5.58125 2 10C2 13.75 4.58437 16.9 8.06875 17.7656V12.4438H6.41875V10H8.06875V8.94688C8.06875 6.225 9.3 4.9625 11.975 4.9625C12.4813 4.9625 13.3562 5.0625 13.7156 5.1625V7.375C13.5281 7.35625 13.2 7.34375 12.7906 7.34375C11.4781 7.34375 10.9719 7.84062 10.9719 9.13125V10H13.5844L13.1344 12.4438H10.9688V17.9406C14.9312 17.4625 18 14.0906 18 10Z" fill="white"/>
</svg>
