<svg width="23" height="26" viewBox="0 0 23 26" fill="none" xmlns="http://www.w3.org/2000/svg">
<path d="M10.8 0H11.6C12.265 0 12.8 0.535 12.8 1.2V4L14.22 1.155C16.12 2.175 17.445 4.125 17.585 6.4H17.595C18.26 6.4 18.795 6.935 18.795 7.6C18.795 8.265 18.26 8.8 17.595 8.8H4.8C4.135 8.8 3.6 8.265 3.6 7.6C3.6 6.935 4.135 6.4 4.8 6.4H4.81C4.95 4.13 6.28 2.175 8.18 1.155L9.6 4V1.2C9.6 0.535 10.135 0 10.8 0ZM8.1 15.2C6.355 14.23 5.11 12.47 4.85 10.4H7.28C7.65 12.225 9.265 13.6 11.2 13.6C13.135 13.6 14.75 12.225 15.12 10.4H17.55C17.29 12.47 16.045 14.23 14.3 15.2C13.38 15.71 12.325 16 11.2 16C10.075 16 9.02 15.71 8.1 15.2ZM7.53 17.6H11.2H14.87H15.68C19.39 17.6 22.4 20.61 22.4 24.32C22.4 25.025 21.825 25.6 21.12 25.6H1.28C0.575 25.6 0 25.025 0 24.32C0 20.61 3.01 17.6 6.72 17.6H7.53ZM19.855 23.2C19.36 21.355 17.68 20 15.68 20H6.72C4.72 20 3.04 21.355 2.545 23.2H19.85H19.855Z" fill="#BDBDBD"/>
</svg>
