<svg width="66" height="32" viewBox="0 0 66 32" fill="none" xmlns="http://www.w3.org/2000/svg">
<path opacity="0.4" d="M21.6001 16.725C25.3351 13.46 29.0651 10.195 32.8001 6.92505L44.0051 16.73L44.0251 26.795C44.0251 27.9 43.1301 28.8 42.0251 28.8H38.0001C36.8951 28.8 36.0001 27.905 36.0001 26.8V22.385C36.0001 21.5 35.2851 20.785 34.4001 20.785H31.2001C30.3151 20.785 29.6001 21.5 29.6001 22.385V26.8C29.6001 27.905 28.7051 28.8 27.6001 28.8H23.6051C22.5001 28.8 21.6051 27.905 21.6051 26.8L21.6001 16.725Z" fill="#7427A7"/>
<path d="M31.7453 3.59504C32.3503 3.07004 33.2503 3.07004 33.8553 3.59504L46.6553 14.795C47.3203 15.375 47.3853 16.39 46.8053 17.055C46.2253 17.72 45.2103 17.785 44.5453 17.205L32.8003 6.92504L21.0553 17.205C20.3903 17.785 19.3803 17.72 18.7953 17.055C18.2103 16.39 18.2803 15.38 18.9453 14.795L31.7453 3.59504Z" fill="#7427A7"/>
</svg>
