<svg width="24" height="24" viewBox="0 0 24 24" fill="none" xmlns="http://www.w3.org/2000/svg">
<path d="M17.4 9.5999C17.4 6.61865 14.9813 4.1999 12 4.1999C9.0188 4.1999 6.60005 6.61865 6.60005 9.5999C6.60005 10.0649 6.7688 10.7849 7.1738 11.7449C7.56755 12.6749 8.1263 13.7024 8.76755 14.7412C9.8363 16.4737 11.0738 18.1462 12 19.3387C12.93 18.1462 14.1675 16.4737 15.2325 14.7412C15.8738 13.7024 16.4325 12.6749 16.8263 11.7449C17.2313 10.7849 17.4 10.0649 17.4 9.5999ZM19.2 9.5999C19.2 12.8774 14.8125 18.7124 12.8888 21.1199C12.4275 21.6937 11.5725 21.6937 11.1113 21.1199C9.18755 18.7124 4.80005 12.8774 4.80005 9.5999C4.80005 5.6249 8.02505 2.3999 12 2.3999C15.975 2.3999 19.2 5.6249 19.2 9.5999ZM13.2 9.5999C13.2 9.28164 13.0736 8.97642 12.8486 8.75137C12.6235 8.52633 12.3183 8.3999 12 8.3999C11.6818 8.3999 11.3766 8.52633 11.1515 8.75137C10.9265 8.97642 10.8 9.28164 10.8 9.5999C10.8 9.91816 10.9265 10.2234 11.1515 10.4484C11.3766 10.6735 11.6818 10.7999 12 10.7999C12.3183 10.7999 12.6235 10.6735 12.8486 10.4484C13.0736 10.2234 13.2 9.91816 13.2 9.5999ZM9.00005 9.5999C9.00005 8.80425 9.31612 8.04119 9.87873 7.47858C10.4413 6.91597 11.2044 6.5999 12 6.5999C12.7957 6.5999 13.5588 6.91597 14.1214 7.47858C14.684 8.04119 15 8.80425 15 9.5999C15 10.3956 14.684 11.1586 14.1214 11.7212C13.5588 12.2838 12.7957 12.5999 12 12.5999C11.2044 12.5999 10.4413 12.2838 9.87873 11.7212C9.31612 11.1586 9.00005 10.3956 9.00005 9.5999Z" fill="#7427A7"/>
</svg>
