<svg width="265" height="113" viewBox="0 0 265 113" fill="none" xmlns="http://www.w3.org/2000/svg">
<path d="M247.421 77.7063L244.305 67.4621H228.626L225.497 77.7063H215.67L230.859 34.4966H242.011L257.261 77.7063H247.421ZM242.134 59.8065C239.244 50.5315 237.619 45.2867 237.251 44.066C236.889 42.8484 236.631 41.8884 236.478 41.1829C235.831 43.6949 233.978 49.9028 230.92 59.8065H242.134Z" fill="#C1FF72"/>
<mask id="mask0_562_2403" style="mask-type:luminance" maskUnits="userSpaceOnUse" x="212" y="28" width="31" height="57">
<path d="M212.785 28.2667H242.622V84.0149H212.785V28.2667Z" fill="white"/>
</mask>
<g mask="url(#mask0_562_2403)">
<mask id="mask1_562_2403" style="mask-type:luminance" maskUnits="userSpaceOnUse" x="213" y="28" width="30" height="57">
<path d="M229.903 28.7177L242.515 32.8797L225.643 84.0057L213.031 79.8436L229.903 28.7177Z" fill="white"/>
</mask>
<g mask="url(#mask1_562_2403)">
<path d="M229.903 28.7177L242.515 32.8797L225.636 84.0211L213.024 79.859L229.903 28.7177Z" fill="#1D594E"/>
</g>
</g>
<mask id="mask2_562_2403" style="mask-type:luminance" maskUnits="userSpaceOnUse" x="206" y="13" width="36" height="64">
<path d="M206.28 13.7377H241.947V76.8868H206.28V13.7377Z" fill="white"/>
</mask>
<g mask="url(#mask2_562_2403)">
<path d="M207.332 76.9389C207.145 76.9389 206.955 76.8868 206.783 76.7825C206.341 76.5126 206.16 75.9544 206.363 75.4759L218.165 47.4454H207.332C206.967 47.4454 206.629 47.2553 206.436 46.9455C206.246 46.6326 206.228 46.2462 206.39 45.9211L222.189 14.3204C222.37 13.9646 222.735 13.7377 223.134 13.7377H239.987C240.371 13.7377 240.724 13.9462 240.911 14.2836C241.095 14.621 241.082 15.032 240.877 15.354L228.559 34.8058H241.04C241.451 34.8058 241.822 35.042 241.993 35.4131C242.168 35.7842 242.11 36.2228 241.846 36.5387L208.138 76.5648C207.933 76.8071 207.635 76.9389 207.332 76.9389Z" fill="#C1FF72"/>
</g>
<path d="M26.5943 76.165H17.8346V42.1321H6.60889V34.8446H37.82V42.1321H26.5943V76.165Z" fill="white"/>
<path d="M53.3711 43.9724C54.5396 43.9724 55.5089 44.0583 56.2787 44.2301L55.6285 52.315C54.9322 52.1279 54.0857 52.0328 53.0889 52.0328C50.3407 52.0328 48.1968 52.7413 46.6602 54.1553C45.1205 55.5631 44.3537 57.5383 44.3537 60.081V76.165H35.7412V44.5613H42.2681L43.5317 49.8858H43.9611C44.9426 48.113 46.2676 46.6838 47.9361 45.6041C49.6046 44.5184 51.4142 43.9724 53.3711 43.9724Z" fill="white"/>
<path d="M74.3239 76.1651L72.6554 71.8711H72.4346C70.9777 73.696 69.4809 74.9628 67.9443 75.6743C66.4138 76.3767 64.414 76.7294 61.945 76.7294C58.9085 76.7294 56.5223 75.8645 54.7802 74.1285C53.0381 72.3956 52.167 69.9296 52.167 66.7306C52.167 63.369 53.3386 60.8969 55.6881 59.3081C58.0344 57.7132 61.5708 56.8299 66.3003 56.6581L71.7844 56.4986V55.1123C71.7844 51.9071 70.1434 50.303 66.8647 50.303C64.3374 50.303 61.3684 51.0698 57.9577 52.5972L55.1114 46.7697C58.7429 44.865 62.7731 43.9111 67.2082 43.9111C71.4439 43.9111 74.692 44.8374 76.9494 46.6838C79.2129 48.5333 80.3478 51.3428 80.3478 55.1123V76.1651H74.3239ZM71.7844 61.5287L68.4473 61.6391C65.9445 61.7128 64.0797 62.1667 62.8529 63.0009C61.626 63.8291 61.0126 65.0866 61.0126 66.7796C61.0126 69.2088 62.4051 70.4234 65.1962 70.4234C67.1898 70.4234 68.7847 69.8529 69.9809 68.7058C71.1832 67.5526 71.7844 66.0282 71.7844 64.1297V61.5287Z" fill="white"/>
<path d="M99.0451 43.9724C102.775 43.9724 105.695 45.4293 107.805 48.34C109.915 51.2538 110.97 55.2441 110.97 60.3141C110.97 65.5343 109.881 69.5738 107.707 72.4354C105.529 75.3001 102.566 76.7294 98.812 76.7294C95.0977 76.7294 92.187 75.386 90.0769 72.693H89.488L88.0403 76.165H81.4644V32.1824H90.0769V42.4143C90.0769 43.7148 89.9664 45.7974 89.7456 48.659H90.0769C92.095 45.5367 95.0855 43.9724 99.0451 43.9724ZM96.2725 50.8673C94.1377 50.8673 92.5796 51.5237 91.5982 52.8303C90.6228 54.14 90.1167 56.3023 90.0769 59.3203V60.2527C90.0769 63.6481 90.5799 66.0803 91.5859 67.5525C92.598 69.0186 94.1991 69.7486 96.3829 69.7486C98.1557 69.7486 99.5635 68.9358 100.603 67.3071C101.649 65.6816 102.174 63.3076 102.174 60.1914C102.174 57.0844 101.646 54.7534 100.591 53.1983C99.5359 51.6464 98.0943 50.8673 96.2725 50.8673Z" fill="white"/>
<path d="M130.39 76.1651L128.722 71.8711H128.501C127.044 73.696 125.547 74.9628 124.011 75.6743C122.48 76.3767 120.48 76.7294 118.011 76.7294C114.975 76.7294 112.589 75.8645 110.847 74.1285C109.104 72.3956 108.233 69.9296 108.233 66.7306C108.233 63.369 109.405 60.8969 111.754 59.3081C114.101 57.7132 117.637 56.8299 122.367 56.6581L127.851 56.4986V55.1123C127.851 51.9071 126.21 50.303 122.931 50.303C120.404 50.303 117.435 51.0698 114.024 52.5972L111.178 46.7697C114.809 44.865 118.84 43.9111 123.275 43.9111C127.51 43.9111 130.758 44.8374 133.016 46.6838C135.279 48.5333 136.414 51.3428 136.414 55.1123V76.1651H130.39ZM127.851 61.5287L124.514 61.6391C122.011 61.7128 120.146 62.1667 118.919 63.0009C117.692 63.8291 117.079 65.0866 117.079 66.7796C117.079 69.2088 118.471 70.4234 121.263 70.4234C123.256 70.4234 124.851 69.8529 126.047 68.7058C127.25 67.5526 127.851 66.0282 127.851 64.1297V61.5287Z" fill="white"/>
<path d="M146.143 76.165H137.531V32.1824H146.143V76.165Z" fill="white"/>
<path d="M176.597 76.165H167.973V57.7132C167.973 53.1493 166.28 50.8673 162.893 50.8673C160.48 50.8673 158.734 51.6893 157.655 53.3333C156.581 54.9711 156.048 57.6242 156.048 61.2956V76.165H147.435V32.1824H156.048V41.1507C156.048 41.8469 155.98 43.4878 155.851 46.0703L155.655 48.6099H156.109C158.029 45.5183 161.081 43.9724 165.261 43.9724C168.972 43.9724 171.791 44.9723 173.714 46.9659C175.634 48.9626 176.597 51.8304 176.597 55.5662V76.165Z" fill="white"/>
<path d="M190.793 50.1067C188.969 50.1067 187.536 50.6894 186.499 51.8488C185.46 53.002 184.868 54.646 184.721 56.7807H196.817C196.774 54.646 196.219 53.002 195.149 51.8488C194.075 50.6894 192.625 50.1067 190.793 50.1067ZM192.008 76.7294C186.92 76.7294 182.945 75.3277 180.083 72.5213C177.218 69.7179 175.789 65.7429 175.789 60.5963C175.789 55.2963 177.108 51.2047 179.752 48.3155C182.402 45.4201 186.064 43.9724 190.744 43.9724C195.21 43.9724 198.685 45.2453 201.173 47.7879C203.657 50.3336 204.902 53.8455 204.902 58.3266V62.5101H184.524C184.613 64.9638 185.337 66.8777 186.696 68.2518C188.051 69.6259 189.959 70.3129 192.413 70.3129C194.308 70.3129 196.106 70.1166 197.799 69.724C199.498 69.3253 201.274 68.6904 203.123 67.8224V74.4965C201.608 75.251 199.995 75.8092 198.277 76.1773C196.566 76.5453 194.477 76.7294 192.008 76.7294Z" fill="white"/>
<path d="M240.794 32.985V32.8746C241.309 32.2795 241.659 31.8287 241.849 31.525H243.383V31.6109C243.226 31.7673 242.959 32.0004 242.585 32.3102C242.208 32.6139 241.913 32.8378 241.702 32.985H240.794Z" fill="#C1FF72"/>
<mask id="mask3_562_2403" style="mask-type:luminance" maskUnits="userSpaceOnUse" x="220" y="34" width="22" height="4">
<path d="M220.6 34.8242H241.993V37.7533H220.6V34.8242Z" fill="white"/>
</mask>
<g mask="url(#mask3_562_2403)">
<path d="M220.6 34.8242H241.996V37.7533H220.6V34.8242Z" fill="#C1FF72"/>
</g>
</svg>
