<svg width="20" height="15" viewBox="0 0 20 15" fill="none" xmlns="http://www.w3.org/2000/svg">
<path d="M2.4 1.8C2.07 1.8 1.8 2.07 1.8 2.4V3.22875L8.26875 8.53875C9.045 9.17625 10.1588 9.17625 10.935 8.53875L17.4 3.22875V2.4C17.4 2.07 17.13 1.8 16.8 1.8H2.4ZM1.8 5.5575V12C1.8 12.33 2.07 12.6 2.4 12.6H16.8C17.13 12.6 17.4 12.33 17.4 12V5.5575L12.075 9.93C10.635 11.1112 8.56125 11.1112 7.125 9.93L1.8 5.5575ZM0 2.4C0 1.07625 1.07625 0 2.4 0H16.8C18.1238 0 19.2 1.07625 19.2 2.4V12C19.2 13.3237 18.1238 14.4 16.8 14.4H2.4C1.07625 14.4 0 13.3237 0 12V2.4Z" fill="#F2FBF8"/>
</svg>
