<svg width="16" height="11" viewBox="0 0 16 11" fill="none" xmlns="http://www.w3.org/2000/svg">
<path d="M-0.000101522 10.1221V0.51807H5.0539C5.70723 0.51807 6.24857 0.639403 6.6779 0.88207C7.11657 1.1154 7.44323 1.44674 7.6579 1.87607C7.87257 2.29607 7.9799 2.7814 7.9799 3.33207C7.9799 3.99474 7.83057 4.56407 7.5319 5.04007C7.23323 5.51607 6.82257 5.85674 6.2999 6.06207L8.3159 10.1221H6.8599L4.9839 6.30007H1.3299V10.1221H-0.000101522ZM1.3299 5.16607H4.9279C5.4599 5.16607 5.87523 5.00274 6.1739 4.67607C6.4819 4.3494 6.6359 3.9014 6.6359 3.33207C6.6359 2.9774 6.57057 2.67874 6.4399 2.43607C6.30923 2.1934 6.1179 2.00674 5.8659 1.87607C5.6139 1.73607 5.30123 1.66607 4.9279 1.66607H1.3299V5.16607ZM12.2298 10.8081V6.96182e-05H12.9298V10.8081H12.2298ZM12.5098 9.17007C12.0058 9.17007 11.5624 9.11874 11.1798 9.01607C10.7971 8.9134 10.4798 8.76874 10.2278 8.58207C9.97577 8.38607 9.78444 8.15274 9.65377 7.88207C9.52311 7.60207 9.45777 7.2894 9.45777 6.94407C9.45777 6.90674 9.45777 6.8694 9.45777 6.83207C9.45777 6.7854 9.46244 6.74807 9.47177 6.72007H10.6898C10.6804 6.7574 10.6758 6.79007 10.6758 6.81807C10.6758 6.83674 10.6758 6.86007 10.6758 6.88807C10.6851 7.21474 10.7691 7.47607 10.9278 7.67207C11.0958 7.85874 11.3244 7.9894 11.6138 8.06407C11.9031 8.13874 12.2251 8.17607 12.5798 8.17607C12.8878 8.17607 13.1724 8.13407 13.4338 8.05007C13.6951 7.96607 13.9004 7.84474 14.0498 7.68607C14.2084 7.51807 14.2878 7.31274 14.2878 7.07007C14.2878 6.75274 14.1851 6.51474 13.9798 6.35607C13.7838 6.1974 13.5224 6.0714 13.1958 5.97807C12.8691 5.8754 12.5284 5.77274 12.1738 5.67007C11.8751 5.58607 11.5764 5.4974 11.2778 5.40407C10.9791 5.3014 10.7084 5.1754 10.4658 5.02607C10.2324 4.8674 10.0411 4.6714 9.89177 4.43807C9.75177 4.1954 9.68177 3.89207 9.68177 3.52807C9.68177 3.2014 9.74711 2.91207 9.87777 2.66007C10.0178 2.40807 10.2138 2.19807 10.4658 2.03007C10.7178 1.85274 11.0211 1.7174 11.3758 1.62407C11.7398 1.53074 12.1411 1.48407 12.5798 1.48407C13.0464 1.48407 13.4524 1.5354 13.7978 1.63807C14.1524 1.74074 14.4464 1.8854 14.6798 2.07207C14.9131 2.25874 15.0858 2.4734 15.1978 2.71607C15.3098 2.95874 15.3658 3.2154 15.3658 3.48607C15.3658 3.53274 15.3658 3.58407 15.3658 3.64007C15.3658 3.68674 15.3611 3.72407 15.3518 3.75207H14.1478V3.59807C14.1478 3.4114 14.0964 3.23407 13.9938 3.06607C13.9004 2.89807 13.7324 2.75807 13.4898 2.64607C13.2564 2.53407 12.9298 2.47807 12.5098 2.47807C12.2391 2.47807 12.0058 2.5014 11.8098 2.54807C11.6138 2.59474 11.4504 2.66007 11.3198 2.74407C11.1891 2.82807 11.0911 2.93074 11.0258 3.05207C10.9604 3.16407 10.9278 3.2994 10.9278 3.45807C10.9278 3.70074 11.0071 3.8874 11.1658 4.01807C11.3244 4.14874 11.5344 4.25607 11.7958 4.34007C12.0664 4.42407 12.3558 4.51274 12.6638 4.60607C12.9904 4.6994 13.3218 4.7974 13.6578 4.90007C14.0031 5.00274 14.3158 5.12874 14.5958 5.27807C14.8851 5.4274 15.1138 5.63274 15.2818 5.89407C15.4591 6.14607 15.5478 6.48207 15.5478 6.90207C15.5478 7.28474 15.4731 7.62074 15.3238 7.91007C15.1744 8.1994 14.9598 8.4374 14.6798 8.62407C14.4091 8.81074 14.0871 8.95074 13.7138 9.04407C13.3498 9.12807 12.9484 9.17007 12.5098 9.17007Z" fill="#400A61"/>
</svg>
