<svg width="23" height="26" viewBox="0 0 23 26" fill="none" xmlns="http://www.w3.org/2000/svg">
<path d="M15.2 6.4C15.2 5.33913 14.7786 4.32172 14.0284 3.57157C13.2783 2.82143 12.2609 2.4 11.2 2.4C10.1391 2.4 9.12172 2.82143 8.37157 3.57157C7.62143 4.32172 7.2 5.33913 7.2 6.4C7.2 7.46087 7.62143 8.47828 8.37157 9.22843C9.12172 9.97857 10.1391 10.4 11.2 10.4C12.2609 10.4 13.2783 9.97857 14.0284 9.22843C14.7786 8.47828 15.2 7.46087 15.2 6.4ZM4.8 6.4C4.8 4.70261 5.47428 3.07475 6.67452 1.87452C7.87475 0.674284 9.50261 0 11.2 0C12.8974 0 14.5253 0.674284 15.7255 1.87452C16.9257 3.07475 17.6 4.70261 17.6 6.4C17.6 8.09739 16.9257 9.72525 15.7255 10.9255C14.5253 12.1257 12.8974 12.8 11.2 12.8C9.50261 12.8 7.87475 12.1257 6.67452 10.9255C5.47428 9.72525 4.8 8.09739 4.8 6.4ZM2.465 23.2H19.94C19.495 20.035 16.775 17.6 13.49 17.6H8.92C5.635 17.6 2.915 20.035 2.47 23.2H2.465ZM0 24.115C0 19.19 3.99 15.2 8.915 15.2H13.485C18.41 15.2 22.4 19.19 22.4 24.115C22.4 24.935 21.735 25.6 20.915 25.6H1.485C0.665 25.6 0 24.935 0 24.115Z" fill="#BDBDBD"/>
</svg>
