<svg width="16" height="16" viewBox="0 0 16 16" fill="none" xmlns="http://www.w3.org/2000/svg">
<path d="M11.7437 8.59965C11.2312 8.3809 10.6375 8.52465 10.2844 8.9559L9.24687 10.2246C7.80937 9.39027 6.60938 8.19027 5.775 6.75277L7.04063 5.7184C7.47188 5.36527 7.61875 4.77152 7.39687 4.25902L5.89687 0.759023C5.6625 0.209023 5.07188 -0.0972265 4.4875 0.0277735L0.9875 0.777773C0.4125 0.899648 0 1.40902 0 1.99965C0 9.22465 5.475 15.1746 12.5031 15.9215C12.8094 15.9528 13.1156 15.9778 13.4281 15.9903H13.4312C13.6219 15.9965 13.8094 16.0028 14 16.0028C14.5906 16.0028 15.1 15.5903 15.2219 15.0153L15.9719 11.5153C16.0969 10.9309 15.7906 10.3403 15.2406 10.1059L11.7406 8.6059L11.7437 8.59965ZM13.7969 14.4996C7.05625 14.3903 1.60938 8.9434 1.50312 2.20277L4.60313 1.53715L5.94688 4.67465L4.825 5.5934C4.25625 6.05902 4.10938 6.8684 4.47813 7.5059C5.44375 9.17152 6.83125 10.559 8.49687 11.5246C9.13437 11.8934 9.94375 11.7465 10.4094 11.1778L11.3281 10.0559L14.4656 11.3996L13.7969 14.4996Z" fill="#1D594E"/>
</svg>
