<svg width="24" height="24" viewBox="0 0 24 24" fill="none" xmlns="http://www.w3.org/2000/svg">
<path d="M5.13752 7.1624L12 4.2524L18.8625 7.1624C19.0838 7.25615 19.2038 7.4549 19.2 7.6424C19.185 11.0699 17.76 16.9912 12.2138 19.6462C12.0788 19.7099 11.9213 19.7099 11.79 19.6462C6.24002 16.9874 4.81877 11.0699 4.80002 7.63865C4.80002 7.45115 4.91627 7.25615 5.13752 7.15865V7.1624ZM19.5638 5.5049L12.5025 2.50865C12.345 2.4374 12.1763 2.3999 12 2.3999C11.8238 2.3999 11.655 2.4374 11.4975 2.50865L4.43627 5.5049C3.61127 5.85365 2.99627 6.6674 3.00002 7.6499C3.01877 11.3699 4.54877 18.1762 11.01 21.2699C11.6363 21.5699 12.3638 21.5699 12.99 21.2699C19.455 18.1762 20.9813 11.3699 21 7.6499C21.0038 6.6674 20.3888 5.85365 19.5638 5.5049ZM14.1 10.1999C14.1 9.04115 13.1588 8.0999 12 8.0999C10.8413 8.0999 9.90002 9.04115 9.90002 10.1999C9.90002 11.0362 10.3913 11.7599 11.1 12.0974V14.6999C11.1 15.1987 11.5013 15.5999 12 15.5999C12.4988 15.5999 12.9 15.1987 12.9 14.6999V12.0974C13.6088 11.7599 14.1 11.0362 14.1 10.1999Z" fill="#7427A7"/>
</svg>
