<svg width="24" height="24" viewBox="0 0 24 24" fill="none" xmlns="http://www.w3.org/2000/svg">
<path d="M16.1999 10.1999C16.1999 8.6086 15.5678 7.08248 14.4425 5.95726C13.3173 4.83204 11.7912 4.1999 10.1999 4.1999C8.6086 4.1999 7.08248 4.83204 5.95726 5.95726C4.83204 7.08248 4.1999 8.6086 4.1999 10.1999C4.1999 11.7912 4.83204 13.3173 5.95726 14.4425C7.08248 15.5678 8.6086 16.1999 10.1999 16.1999C11.7912 16.1999 13.3173 15.5678 14.4425 14.4425C15.5678 13.3173 16.1999 11.7912 16.1999 10.1999ZM15.0412 16.3162C13.7137 17.3699 12.0299 17.9999 10.1999 17.9999C5.89115 17.9999 2.3999 14.5087 2.3999 10.1999C2.3999 5.89115 5.89115 2.3999 10.1999 2.3999C14.5087 2.3999 17.9999 5.89115 17.9999 10.1999C17.9999 12.0299 17.3699 13.7137 16.3162 15.0412L21.3374 20.0624C21.6899 20.4149 21.6899 20.9849 21.3374 21.3337C20.9849 21.6824 20.4149 21.6862 20.0662 21.3337L15.0412 16.3162Z" fill="#7427A7"/>
</svg>
