<svg width="24" height="24" viewBox="0 0 24 24" fill="none" xmlns="http://www.w3.org/2000/svg">
<path d="M7.42111 11.0998L4.86736 5.99608L16.7774 11.0998H7.42111ZM7.42111 12.8998H16.7774L4.86736 18.0036L7.41736 12.8998H7.42111ZM4.07236 3.69733C3.61111 3.49858 3.07111 3.61108 2.72611 3.97483C2.38111 4.33858 2.30236 4.88608 2.52736 5.33608L5.85736 11.9998L2.52736 18.6636C2.30236 19.1136 2.38111 19.6573 2.72611 20.0248C3.07111 20.3923 3.60736 20.5011 4.07236 20.3061L20.8724 13.1061C21.3149 12.9186 21.5999 12.4836 21.5999 12.0036C21.5999 11.5236 21.3149 11.0886 20.8724 10.9011L4.07236 3.70108V3.69733Z" fill="#FBF5FF"/>
</svg>
