<svg width="35" height="34" viewBox="0 0 35 34" fill="none" xmlns="http://www.w3.org/2000/svg">
<path d="M15.6306 0.966311C16.4085 -0.322033 18.277 -0.322033 19.0549 0.966311L23.5015 8.33101C23.7804 8.79291 24.2341 9.12254 24.7596 9.24504L33.1379 11.1982C34.6036 11.5399 35.181 13.317 34.1961 14.4549L28.5659 20.9597C28.2128 21.3677 28.0395 21.901 28.0854 22.4386L28.8168 31.0105C28.9448 32.51 27.4331 33.6083 26.0466 33.0232L18.1203 29.6787C17.6232 29.4689 17.0624 29.4689 16.5653 29.6787L8.63899 33.0232C7.25241 33.6083 5.74075 32.51 5.86871 31.0105L6.60017 22.4386C6.64604 21.901 6.47275 21.3677 6.11963 20.9597L0.489474 14.4549C-0.495438 13.317 0.0819628 11.5399 1.54763 11.1982L9.92596 9.24504C10.4514 9.12254 10.9051 8.79292 11.184 8.33101L15.6306 0.966311Z" fill="#FFC620"/>
</svg>
