<svg width="20" height="20" viewBox="0 0 20 20" fill="none" xmlns="http://www.w3.org/2000/svg">
<path d="M8.53438 3.5H11.4625C11.5469 3.5 11.625 3.54062 11.6719 3.6125L12.2656 4.5H7.73438L8.32812 3.6125C8.375 3.54375 8.45312 3.5 8.5375 3.5H8.53438ZM14.0688 4.5L12.9219 2.77812C12.5969 2.29375 12.05 2 11.4656 2H8.53438C7.95 2 7.40312 2.29375 7.07812 2.77812L5.93125 4.5H5.50312H4H3.75C3.33437 4.5 3 4.83437 3 5.25C3 5.66563 3.33437 6 3.75 6H4.1125L4.8625 16.1469C4.94062 17.1906 5.80938 18 6.85625 18H13.1406C14.1875 18 15.0562 17.1906 15.1344 16.1469L15.8875 6H16.25C16.6656 6 17 5.66563 17 5.25C17 4.83437 16.6656 4.5 16.25 4.5H16H14.4969H14.0688ZM14.3844 6L13.6406 16.0375C13.6219 16.3 13.4031 16.5 13.1406 16.5H6.85625C6.59375 16.5 6.37812 16.2969 6.35625 16.0375L5.61562 6H14.3844Z" fill="#400A61"/>
</svg>
