<svg width="42" height="30" viewBox="0 0 42 30" fill="none" xmlns="http://www.w3.org/2000/svg">
<path d="M23.2903 5.88656C24.1959 6.93656 25.6856 7.27125 26.9587 6.70687C27.5428 6.45094 28.1859 6.3 28.875 6.3C31.4869 6.3 33.6 8.41313 33.6 11.025C33.6 11.2875 33.5803 11.5434 33.5409 11.7928C33.3112 13.2103 34.0725 14.6081 35.385 15.1856C37.4325 16.0716 38.85 18.1125 38.85 20.475C38.85 23.5462 36.4481 26.0662 33.4162 26.2369C33.3769 26.2369 33.3309 26.2434 33.2916 26.25H33.075H9.45C5.97187 26.25 3.15 23.4281 3.15 19.95C3.15 17.2134 4.89562 14.8772 7.35 14.0109C8.61 13.5647 9.45 12.3769 9.45 11.0381V11.025C9.45 6.67406 12.9741 3.15 17.325 3.15C19.7072 3.15 21.84 4.20656 23.2903 5.88656ZM33.6 29.4V29.3869C38.2856 29.1178 42 25.2328 42 20.475C42 16.8197 39.8016 13.6697 36.6516 12.2916C36.7172 11.8781 36.75 11.4516 36.75 11.025C36.75 6.67406 33.2259 3.15 28.875 3.15C27.7331 3.15 26.6569 3.39281 25.6791 3.82594C23.6512 1.48313 20.6653 0 17.325 0C11.235 0 6.3 4.935 6.3 11.025V11.0381C2.63156 12.3375 0 15.8353 0 19.95C0 25.1672 4.23281 29.4 9.45 29.4H30.45H33.075H33.6ZM14.6344 14.6344C14.0175 15.2512 14.0175 16.2487 14.6344 16.8591C15.2512 17.4694 16.2487 17.4759 16.8591 16.8591L19.4184 14.2997L19.425 23.1C19.425 23.9728 20.1272 24.675 21 24.675C21.8728 24.675 22.575 23.9728 22.575 23.1V14.2997L25.1344 16.8591C25.7512 17.4759 26.7487 17.4759 27.3591 16.8591C27.9694 16.2422 27.9759 15.2447 27.3591 14.6344L22.1091 9.38437C21.4922 8.7675 20.4947 8.7675 19.8844 9.38437L14.6344 14.6344Z" fill="#7427A7"/>
</svg>
